<svg width="244" height="33" viewBox="0 0 244 33" fill="none" xmlns="http://www.w3.org/2000/svg">
<path d="M14.1953 19.4023C14.1953 20.7565 14.4297 22.0065 14.8984 23.1523C15.3672 24.2982 15.9792 25.2943 16.7344 26.1406C17.5026 26.974 18.375 27.625 19.3516 28.0938C20.3411 28.5625 21.3568 28.7969 22.3984 28.7969C23.362 28.7969 24.2279 28.6602 24.9961 28.3867C25.7773 28.1003 26.4609 27.7096 27.0469 27.2148C27.6328 26.7201 28.1146 26.1471 28.4922 25.4961C28.8828 24.8451 29.1823 24.1484 29.3906 23.4062H33.3945C33.0951 24.6042 32.6263 25.737 31.9883 26.8047C31.3503 27.8724 30.556 28.8099 29.6055 29.6172C28.668 30.4115 27.5938 31.043 26.3828 31.5117C25.1719 31.9674 23.8438 32.1953 22.3984 32.1953C20.7969 32.1953 19.2669 31.8698 17.8086 31.2188C16.3633 30.5677 15.0938 29.6628 14 28.5039C12.9062 27.3451 12.0339 25.9909 11.3828 24.4414C10.7318 22.8919 10.4062 21.2122 10.4062 19.4023C10.4062 17.6185 10.7318 15.9453 11.3828 14.3828C12.0339 12.8203 12.9062 11.4596 14 10.3008C15.0938 9.14193 16.3633 8.23698 17.8086 7.58594C19.2669 6.9349 20.7969 6.60938 22.3984 6.60938C23.7786 6.60938 25.0677 6.84375 26.2656 7.3125C27.4766 7.76823 28.5378 8.39974 29.4492 9.20703C30.3737 10.0013 31.1549 10.9323 31.793 12C32.444 13.0677 32.9128 14.2005 33.1992 15.3984H29.1953C28.987 14.6562 28.6875 13.9596 28.2969 13.3086C27.9062 12.6445 27.4245 12.0716 26.8516 11.5898C26.2786 11.0951 25.6211 10.7109 24.8789 10.4375C24.1367 10.151 23.3099 10.0078 22.3984 10.0078C21.3568 10.0078 20.3411 10.2422 19.3516 10.7109C18.375 11.1667 17.5026 11.8177 16.7344 12.6641C15.9792 13.4974 15.3672 14.4935 14.8984 15.6523C14.4297 16.7982 14.1953 18.0482 14.1953 19.4023ZM47.9844 16.8047C49.0781 16.8047 50.0872 16.9935 51.0117 17.3711C51.9492 17.7357 52.7565 18.263 53.4336 18.9531C54.1237 19.6302 54.651 20.4375 55.0156 21.375C55.3932 22.2995 55.582 23.3086 55.582 24.4023C55.582 25.4961 55.3932 26.5117 55.0156 27.4492C54.651 28.3737 54.1237 29.181 53.4336 29.8711C52.7565 30.5482 51.9492 31.0755 51.0117 31.4531C50.0872 31.8177 49.0781 32 47.9844 32H37.5938V6.80469H53.7852V10.3984H41.3828V16.8047H47.9844ZM41.3828 20.3984V28.4062H47.9844C49.1042 28.4062 50.0156 28.0417 50.7188 27.3125C51.4349 26.5703 51.793 25.6003 51.793 24.4023C51.793 23.2044 51.4349 22.2409 50.7188 21.5117C50.0156 20.7695 49.1042 20.3984 47.9844 20.3984H41.3828Z" fill="black"/>
<path d="M110.1 10.3027C110.34 10.4199 110.555 10.5794 110.744 10.7812C110.907 10.957 111.057 11.1784 111.193 11.4453C111.33 11.7057 111.398 12.0247 111.398 12.4023C111.398 12.7734 111.33 13.1185 111.193 13.4375C111.063 13.7565 110.881 14.0299 110.646 14.2578C110.419 14.4857 110.135 14.668 109.797 14.8047C109.465 14.9349 109.1 15 108.703 15H104.201V5.99609H108.4C108.798 5.99609 109.162 6.0612 109.494 6.19141C109.833 6.3151 110.116 6.49089 110.344 6.71875C110.578 6.94661 110.76 7.21354 110.891 7.51953C111.027 7.82552 111.096 8.15104 111.096 8.49609C111.096 8.82812 111.044 9.10482 110.939 9.32617C110.835 9.54753 110.721 9.73307 110.598 9.88281C110.454 10.0456 110.288 10.1855 110.1 10.3027ZM105.998 7.5V9.69727H108.195C108.501 9.69727 108.762 9.5931 108.977 9.38477C109.191 9.16992 109.299 8.90951 109.299 8.60352C109.299 8.29753 109.191 8.03711 108.977 7.82227C108.768 7.60742 108.508 7.5 108.195 7.5H105.998ZM108.498 13.4961C108.804 13.4961 109.064 13.3854 109.279 13.1641C109.494 12.9362 109.602 12.6497 109.602 12.3047C109.602 11.9987 109.494 11.7383 109.279 11.5234C109.064 11.3086 108.804 11.2012 108.498 11.2012H105.998V13.4961H108.498ZM119.602 10.498C119.602 10.0684 119.53 9.67773 119.387 9.32617C119.25 8.97461 119.068 8.66862 118.84 8.4082C118.612 8.14779 118.345 7.94922 118.039 7.8125C117.733 7.66927 117.421 7.59766 117.102 7.59766C116.783 7.59766 116.47 7.66927 116.164 7.8125C115.858 7.94922 115.591 8.14779 115.363 8.4082C115.135 8.66862 114.95 8.97786 114.807 9.33594C114.67 9.6875 114.602 10.0749 114.602 10.498C114.602 10.9277 114.67 11.3184 114.807 11.6699C114.95 12.0215 115.135 12.3275 115.363 12.5879C115.591 12.8483 115.858 13.0501 116.164 13.1934C116.47 13.3301 116.783 13.3984 117.102 13.3984C117.421 13.3984 117.733 13.3301 118.039 13.1934C118.345 13.0501 118.612 12.8483 118.84 12.5879C119.068 12.3275 119.25 12.0215 119.387 11.6699C119.53 11.3184 119.602 10.9277 119.602 10.498ZM121.398 10.498C121.398 11.1751 121.288 11.7969 121.066 12.3633C120.852 12.9232 120.546 13.4082 120.148 13.8184C119.758 14.222 119.302 14.5378 118.781 14.7656C118.26 14.987 117.701 15.0977 117.102 15.0977C116.503 15.0977 115.943 14.987 115.422 14.7656C114.901 14.5378 114.442 14.222 114.045 13.8184C113.654 13.4082 113.348 12.9232 113.127 12.3633C112.912 11.8034 112.805 11.1816 112.805 10.498C112.805 9.82096 112.912 9.20247 113.127 8.64258C113.348 8.08268 113.654 7.60091 114.045 7.19727C114.442 6.78711 114.901 6.4681 115.422 6.24023C115.943 6.01237 116.503 5.89844 117.102 5.89844C117.701 5.89844 118.26 6.01237 118.781 6.24023C119.302 6.4681 119.758 6.78711 120.148 7.19727C120.546 7.60091 120.852 8.08268 121.066 8.64258C121.288 9.20247 121.398 9.82096 121.398 10.498ZM130.51 5.99609V15H128.703V7.69531H125.705L125.402 12.002C125.337 13.0046 125.051 13.7728 124.543 14.3066C124.042 14.834 123.361 15.0977 122.502 15.0977C122.424 15.0977 122.352 15.0944 122.287 15.0879C122.222 15.0814 122.154 15.0716 122.082 15.0586C122.017 15.0456 121.958 15.026 121.906 15V13.4961H122.102C123.02 13.4961 123.521 12.998 123.605 12.002L124.104 5.99609H130.51ZM139.211 10.498C139.211 10.0684 139.139 9.67773 138.996 9.32617C138.859 8.97461 138.677 8.66862 138.449 8.4082C138.221 8.14779 137.954 7.94922 137.648 7.8125C137.342 7.66927 137.03 7.59766 136.711 7.59766C136.392 7.59766 136.079 7.66927 135.773 7.8125C135.467 7.94922 135.201 8.14779 134.973 8.4082C134.745 8.66862 134.559 8.97786 134.416 9.33594C134.279 9.6875 134.211 10.0749 134.211 10.498C134.211 10.9277 134.279 11.3184 134.416 11.6699C134.559 12.0215 134.745 12.3275 134.973 12.5879C135.201 12.8483 135.467 13.0501 135.773 13.1934C136.079 13.3301 136.392 13.3984 136.711 13.3984C137.03 13.3984 137.342 13.3301 137.648 13.1934C137.954 13.0501 138.221 12.8483 138.449 12.5879C138.677 12.3275 138.859 12.0215 138.996 11.6699C139.139 11.3184 139.211 10.9277 139.211 10.498ZM141.008 10.498C141.008 11.1751 140.897 11.7969 140.676 12.3633C140.461 12.9232 140.155 13.4082 139.758 13.8184C139.367 14.222 138.911 14.5378 138.391 14.7656C137.87 14.987 137.31 15.0977 136.711 15.0977C136.112 15.0977 135.552 14.987 135.031 14.7656C134.51 14.5378 134.051 14.222 133.654 13.8184C133.264 13.4082 132.958 12.9232 132.736 12.3633C132.521 11.8034 132.414 11.1816 132.414 10.498C132.414 9.82096 132.521 9.20247 132.736 8.64258C132.958 8.08268 133.264 7.60091 133.654 7.19727C134.051 6.78711 134.51 6.4681 135.031 6.24023C135.552 6.01237 136.112 5.89844 136.711 5.89844C137.31 5.89844 137.87 6.01237 138.391 6.24023C138.911 6.4681 139.367 6.78711 139.758 7.19727C140.155 7.60091 140.461 8.08268 140.676 8.64258C140.897 9.20247 141.008 9.82096 141.008 10.498ZM150.812 5.99609V15H149.016V11.2988H144.709V15H142.912V5.99609H144.709V9.59961H149.016V5.99609H150.812ZM152.307 5.99609H159.699V7.69531H156.906V15H155.1V7.69531H152.307V5.99609ZM168.82 12.4023C168.671 12.7734 168.482 13.1217 168.254 13.4473C168.026 13.7728 167.753 14.0592 167.434 14.3066C167.115 14.554 166.743 14.7493 166.32 14.8926C165.904 15.0293 165.435 15.0977 164.914 15.0977C164.315 15.0977 163.755 14.987 163.234 14.7656C162.714 14.5378 162.258 14.222 161.867 13.8184C161.477 13.4082 161.171 12.9232 160.949 12.3633C160.728 11.8034 160.617 11.1816 160.617 10.498C160.617 9.82096 160.728 9.20247 160.949 8.64258C161.171 8.08268 161.47 7.60091 161.848 7.19727C162.225 6.78711 162.671 6.4681 163.186 6.24023C163.7 6.01237 164.243 5.89844 164.816 5.89844C165.389 5.89844 165.933 6.01237 166.447 6.24023C166.962 6.4681 167.408 6.78711 167.785 7.19727C168.163 7.60091 168.462 8.08268 168.684 8.64258C168.905 9.20247 169.016 9.82096 169.016 10.498C169.016 10.6022 169.009 10.7064 168.996 10.8105C168.983 10.9082 168.97 10.9928 168.957 11.0645C168.944 11.1556 168.931 11.2337 168.918 11.2988H162.512C162.538 11.5788 162.619 11.8457 162.756 12.0996C162.893 12.3535 163.062 12.5781 163.264 12.7734C163.472 12.9622 163.719 13.1152 164.006 13.2324C164.292 13.3431 164.595 13.3984 164.914 13.3984C165.461 13.3984 165.894 13.2812 166.213 13.0469C166.538 12.8125 166.773 12.5977 166.916 12.4023H168.82ZM164.816 7.59766C164.217 7.59766 163.71 7.80273 163.293 8.21289C162.883 8.61654 162.622 9.14714 162.512 9.80469H167.316C167.212 9.15365 166.945 8.62305 166.516 8.21289C166.092 7.80273 165.526 7.59766 164.816 7.59766ZM175.217 5.89844C175.816 5.89844 176.376 6.01237 176.896 6.24023C177.417 6.4681 177.873 6.78711 178.264 7.19727C178.661 7.60091 178.97 8.08268 179.191 8.64258C179.413 9.20247 179.523 9.82096 179.523 10.498C179.523 11.1751 179.413 11.7969 179.191 12.3633C178.97 12.9232 178.661 13.4082 178.264 13.8184C177.873 14.222 177.417 14.5378 176.896 14.7656C176.376 14.987 175.816 15.0977 175.217 15.0977C174.787 15.0977 174.419 15.0488 174.113 14.9512C173.807 14.8535 173.55 14.7363 173.342 14.5996C173.101 14.4499 172.893 14.2839 172.717 14.1016V18.2031H170.92V5.99609H172.219L172.619 6.9043C172.795 6.71549 173 6.54622 173.234 6.39648C173.449 6.2793 173.719 6.16862 174.045 6.06445C174.37 5.95378 174.761 5.89844 175.217 5.89844ZM175.119 13.3984C175.464 13.3984 175.793 13.3301 176.105 13.1934C176.418 13.0501 176.695 12.8483 176.936 12.5879C177.176 12.3275 177.365 12.0215 177.502 11.6699C177.645 11.3184 177.717 10.9277 177.717 10.498C177.717 10.0684 177.645 9.67773 177.502 9.32617C177.365 8.97461 177.176 8.66862 176.936 8.4082C176.695 8.14779 176.418 7.94922 176.105 7.8125C175.793 7.66927 175.464 7.59766 175.119 7.59766C174.774 7.59766 174.442 7.66927 174.123 7.8125C173.811 7.94922 173.534 8.14779 173.293 8.4082C173.059 8.66862 172.87 8.97786 172.727 9.33594C172.59 9.6875 172.521 10.0749 172.521 10.498C172.521 10.9277 172.59 11.3184 172.727 11.6699C172.87 12.0215 173.059 12.3275 173.293 12.5879C173.534 12.8483 173.811 13.0501 174.123 13.1934C174.442 13.3301 174.774 13.3984 175.119 13.3984ZM189.23 11.6992C189.126 12.181 188.96 12.6302 188.732 13.0469C188.505 13.457 188.215 13.8151 187.863 14.1211C187.518 14.4271 187.121 14.668 186.672 14.8438C186.229 15.013 185.747 15.0977 185.227 15.0977C184.628 15.0977 184.068 14.987 183.547 14.7656C183.026 14.5378 182.567 14.222 182.17 13.8184C181.779 13.4082 181.473 12.9232 181.252 12.3633C181.037 11.8034 180.93 11.1816 180.93 10.498C180.93 9.82096 181.037 9.20247 181.252 8.64258C181.473 8.08268 181.779 7.60091 182.17 7.19727C182.567 6.78711 183.026 6.4681 183.547 6.24023C184.068 6.01237 184.628 5.89844 185.227 5.89844C185.747 5.89844 186.229 5.98633 186.672 6.16211C187.121 6.33138 187.518 6.57227 187.863 6.88477C188.215 7.19076 188.501 7.55208 188.723 7.96875C188.951 8.37891 189.12 8.82161 189.23 9.29688H187.326C187.176 8.78906 186.929 8.37891 186.584 8.06641C186.239 7.75391 185.786 7.59766 185.227 7.59766C184.908 7.59766 184.595 7.66927 184.289 7.8125C183.983 7.94922 183.716 8.14779 183.488 8.4082C183.26 8.66862 183.075 8.97786 182.932 9.33594C182.795 9.6875 182.727 10.0749 182.727 10.498C182.727 10.9277 182.795 11.3184 182.932 11.6699C183.075 12.0215 183.26 12.3275 183.488 12.5879C183.716 12.8483 183.983 13.0501 184.289 13.1934C184.595 13.3301 184.908 13.3984 185.227 13.3984C185.786 13.3984 186.239 13.2422 186.584 12.9297C186.936 12.6172 187.183 12.207 187.326 11.6992H189.23ZM196.438 15L192.932 10.7031V15H191.135V5.99609H192.932V9.90234L196.037 5.99609H198.137L194.641 10.1953L198.635 15H196.438ZM205.734 10.498C205.734 10.0684 205.663 9.67773 205.52 9.32617C205.383 8.97461 205.201 8.66862 204.973 8.4082C204.745 8.14779 204.478 7.94922 204.172 7.8125C203.866 7.66927 203.553 7.59766 203.234 7.59766C202.915 7.59766 202.603 7.66927 202.297 7.8125C201.991 7.94922 201.724 8.14779 201.496 8.4082C201.268 8.66862 201.083 8.97786 200.939 9.33594C200.803 9.6875 200.734 10.0749 200.734 10.498C200.734 10.9277 200.803 11.3184 200.939 11.6699C201.083 12.0215 201.268 12.3275 201.496 12.5879C201.724 12.8483 201.991 13.0501 202.297 13.1934C202.603 13.3301 202.915 13.3984 203.234 13.3984C203.553 13.3984 203.866 13.3301 204.172 13.1934C204.478 13.0501 204.745 12.8483 204.973 12.5879C205.201 12.3275 205.383 12.0215 205.52 11.6699C205.663 11.3184 205.734 10.9277 205.734 10.498ZM207.531 10.498C207.531 11.1751 207.421 11.7969 207.199 12.3633C206.984 12.9232 206.678 13.4082 206.281 13.8184C205.891 14.222 205.435 14.5378 204.914 14.7656C204.393 14.987 203.833 15.0977 203.234 15.0977C202.635 15.0977 202.076 14.987 201.555 14.7656C201.034 14.5378 200.575 14.222 200.178 13.8184C199.787 13.4082 199.481 12.9232 199.26 12.3633C199.045 11.8034 198.938 11.1816 198.938 10.498C198.938 9.82096 199.045 9.20247 199.26 8.64258C199.481 8.08268 199.787 7.60091 200.178 7.19727C200.575 6.78711 201.034 6.4681 201.555 6.24023C202.076 6.01237 202.635 5.89844 203.234 5.89844C203.833 5.89844 204.393 6.01237 204.914 6.24023C205.435 6.4681 205.891 6.78711 206.281 7.19727C206.678 7.60091 206.984 8.08268 207.199 8.64258C207.421 9.20247 207.531 9.82096 207.531 10.498ZM217.238 12.4023C217.089 12.7734 216.9 13.1217 216.672 13.4473C216.444 13.7728 216.171 14.0592 215.852 14.3066C215.533 14.554 215.161 14.7493 214.738 14.8926C214.322 15.0293 213.853 15.0977 213.332 15.0977C212.733 15.0977 212.173 14.987 211.652 14.7656C211.132 14.5378 210.676 14.222 210.285 13.8184C209.895 13.4082 209.589 12.9232 209.367 12.3633C209.146 11.8034 209.035 11.1816 209.035 10.498C209.035 9.82096 209.146 9.20247 209.367 8.64258C209.589 8.08268 209.888 7.60091 210.266 7.19727C210.643 6.78711 211.089 6.4681 211.604 6.24023C212.118 6.01237 212.661 5.89844 213.234 5.89844C213.807 5.89844 214.351 6.01237 214.865 6.24023C215.38 6.4681 215.826 6.78711 216.203 7.19727C216.581 7.60091 216.88 8.08268 217.102 8.64258C217.323 9.20247 217.434 9.82096 217.434 10.498C217.434 10.6022 217.427 10.7064 217.414 10.8105C217.401 10.9082 217.388 10.9928 217.375 11.0645C217.362 11.1556 217.349 11.2337 217.336 11.2988H210.93C210.956 11.5788 211.037 11.8457 211.174 12.0996C211.311 12.3535 211.48 12.5781 211.682 12.7734C211.89 12.9622 212.137 13.1152 212.424 13.2324C212.71 13.3431 213.013 13.3984 213.332 13.3984C213.879 13.3984 214.312 13.2812 214.631 13.0469C214.956 12.8125 215.191 12.5977 215.334 12.4023H217.238ZM213.234 7.59766C212.635 7.59766 212.128 7.80273 211.711 8.21289C211.301 8.61654 211.04 9.14714 210.93 9.80469H215.734C215.63 9.15365 215.363 8.62305 214.934 8.21289C214.51 7.80273 213.944 7.59766 213.234 7.59766ZM112.6 27.3008V31.0996H110.9V29H104.699V31.0996H103V27.3008H103.596C103.785 27.1706 103.954 27.0241 104.104 26.8613C104.234 26.7116 104.357 26.5358 104.475 26.334C104.598 26.1257 104.673 25.8815 104.699 25.6016L105.305 19.9961H111.398V27.3008H112.6ZM106.496 25.6016C106.47 25.8815 106.418 26.1257 106.34 26.334C106.262 26.5358 106.18 26.7116 106.096 26.8613C106.005 27.0241 105.907 27.1706 105.803 27.3008H109.602V21.6953H106.896L106.496 25.6016ZM120.1 24.3027C120.34 24.4199 120.555 24.5794 120.744 24.7812C120.907 24.957 121.057 25.1784 121.193 25.4453C121.33 25.7057 121.398 26.0247 121.398 26.4023C121.398 26.7734 121.33 27.1185 121.193 27.4375C121.063 27.7565 120.881 28.0299 120.646 28.2578C120.419 28.4857 120.135 28.668 119.797 28.8047C119.465 28.9349 119.1 29 118.703 29H114.201V19.9961H118.4C118.798 19.9961 119.162 20.0612 119.494 20.1914C119.833 20.3151 120.116 20.4909 120.344 20.7188C120.578 20.9466 120.76 21.2135 120.891 21.5195C121.027 21.8255 121.096 22.151 121.096 22.4961C121.096 22.8281 121.044 23.1048 120.939 23.3262C120.835 23.5475 120.721 23.7331 120.598 23.8828C120.454 24.0456 120.288 24.1855 120.1 24.3027ZM115.998 21.5V23.6973H118.195C118.501 23.6973 118.762 23.5931 118.977 23.3848C119.191 23.1699 119.299 22.9095 119.299 22.6035C119.299 22.2975 119.191 22.0371 118.977 21.8223C118.768 21.6074 118.508 21.5 118.195 21.5H115.998ZM118.498 27.4961C118.804 27.4961 119.064 27.3854 119.279 27.1641C119.494 26.9362 119.602 26.6497 119.602 26.3047C119.602 25.9987 119.494 25.7383 119.279 25.5234C119.064 25.3086 118.804 25.2012 118.498 25.2012H115.998V27.4961H118.498ZM131.203 19.9961V29H129.406V22.7012L125.1 29H123.303V19.9961H125.1V26.3047L129.406 19.9961H131.203ZM137.59 24.7031L134.396 29H132.199L135.891 24.1953L132.59 19.9961H134.699L137.59 23.9023V19.9961H139.396V23.9023L142.297 19.9961H144.396L141.096 24.1953L144.797 29H142.59L139.396 24.7031V29H137.59V24.7031ZM153.41 26.4023C153.26 26.7734 153.072 27.1217 152.844 27.4473C152.616 27.7728 152.342 28.0592 152.023 28.3066C151.704 28.554 151.333 28.7493 150.91 28.8926C150.493 29.0293 150.025 29.0977 149.504 29.0977C148.905 29.0977 148.345 28.987 147.824 28.7656C147.303 28.5378 146.848 28.222 146.457 27.8184C146.066 27.4082 145.76 26.9232 145.539 26.3633C145.318 25.8034 145.207 25.1816 145.207 24.498C145.207 23.821 145.318 23.2025 145.539 22.6426C145.76 22.0827 146.06 21.6009 146.438 21.1973C146.815 20.7871 147.261 20.4681 147.775 20.2402C148.29 20.0124 148.833 19.8984 149.406 19.8984C149.979 19.8984 150.523 20.0124 151.037 20.2402C151.551 20.4681 151.997 20.7871 152.375 21.1973C152.753 21.6009 153.052 22.0827 153.273 22.6426C153.495 23.2025 153.605 23.821 153.605 24.498C153.605 24.6022 153.599 24.7064 153.586 24.8105C153.573 24.9082 153.56 24.9928 153.547 25.0645C153.534 25.1556 153.521 25.2337 153.508 25.2988H147.102C147.128 25.5788 147.209 25.8457 147.346 26.0996C147.482 26.3535 147.652 26.5781 147.854 26.7734C148.062 26.9622 148.309 27.1152 148.596 27.2324C148.882 27.3431 149.185 27.3984 149.504 27.3984C150.051 27.3984 150.484 27.2812 150.803 27.0469C151.128 26.8125 151.363 26.5977 151.506 26.4023H153.41ZM149.406 21.5977C148.807 21.5977 148.299 21.8027 147.883 22.2129C147.473 22.6165 147.212 23.1471 147.102 23.8047H151.906C151.802 23.1536 151.535 22.623 151.105 22.2129C150.682 21.8027 150.116 21.5977 149.406 21.5977ZM163.41 19.9961V29H161.613V25.2988H157.307V29H155.51V19.9961H157.307V23.5996H161.613V19.9961H163.41ZM173.703 19.9961V29H171.906V22.7012L167.6 29H165.803V19.9961H167.6V26.3047L171.906 19.9961H173.703ZM183.898 26.4023C183.749 26.7734 183.56 27.1217 183.332 27.4473C183.104 27.7728 182.831 28.0592 182.512 28.3066C182.193 28.554 181.822 28.7493 181.398 28.8926C180.982 29.0293 180.513 29.0977 179.992 29.0977C179.393 29.0977 178.833 28.987 178.312 28.7656C177.792 28.5378 177.336 28.222 176.945 27.8184C176.555 27.4082 176.249 26.9232 176.027 26.3633C175.806 25.8034 175.695 25.1816 175.695 24.498C175.695 23.821 175.806 23.2025 176.027 22.6426C176.249 22.0827 176.548 21.6009 176.926 21.1973C177.303 20.7871 177.749 20.4681 178.264 20.2402C178.778 20.0124 179.322 19.8984 179.895 19.8984C180.467 19.8984 181.011 20.0124 181.525 20.2402C182.04 20.4681 182.486 20.7871 182.863 21.1973C183.241 21.6009 183.54 22.0827 183.762 22.6426C183.983 23.2025 184.094 23.821 184.094 24.498C184.094 24.6022 184.087 24.7064 184.074 24.8105C184.061 24.9082 184.048 24.9928 184.035 25.0645C184.022 25.1556 184.009 25.2337 183.996 25.2988H177.59C177.616 25.5788 177.697 25.8457 177.834 26.0996C177.971 26.3535 178.14 26.5781 178.342 26.7734C178.55 26.9622 178.798 27.1152 179.084 27.2324C179.37 27.3431 179.673 27.3984 179.992 27.3984C180.539 27.3984 180.972 27.2812 181.291 27.0469C181.617 26.8125 181.851 26.5977 181.994 26.4023H183.898ZM179.895 21.5977C179.296 21.5977 178.788 21.8027 178.371 22.2129C177.961 22.6165 177.701 23.1471 177.59 23.8047H182.395C182.29 23.1536 182.023 22.623 181.594 22.2129C181.171 21.8027 180.604 21.5977 179.895 21.5977Z" fill="black"/>
<path fill-rule="evenodd" clip-rule="evenodd" d="M69.2766 27.805C72.5938 23.678 76.36 18.9923 76.36 14.68C76.36 9.33388 72.0261 5 66.68 5C61.3339 5 57 9.33388 57 14.68C57 19.1327 60.5119 23.9833 63.5692 28.206C64.508 29.5028 65.404 30.7403 66.1422 31.8889C67.012 30.6224 68.1169 29.2479 69.2766 27.805ZM66.5 20C68.9853 20 71 17.9853 71 15.5C71 13.0147 68.9853 11 66.5 11C64.0147 11 62 13.0147 62 15.5C62 17.9853 64.0147 20 66.5 20Z" fill="#FF2E00"/>
<path d="M90.207 6.80469C91.3008 6.80469 92.3294 7.01953 93.293 7.44922C94.2695 7.86589 95.1159 8.4388 95.832 9.16797C96.5612 9.88411 97.1341 10.7305 97.5508 11.707C97.9805 12.6706 98.1953 13.6992 98.1953 14.793C98.1953 15.8867 97.9805 16.9219 97.5508 17.8984C97.1341 18.875 96.5612 19.7214 95.832 20.4375C95.1159 21.1536 94.2695 21.7266 93.293 22.1562C92.3294 22.5859 91.3008 22.8008 90.207 22.8008H84.7969V32H81.0078V6.80469H90.207ZM90.207 19.207C90.7669 19.207 91.2943 19.0964 91.7891 18.875C92.2969 18.6406 92.7461 18.3216 93.1367 17.918C93.5273 17.5143 93.8333 17.0456 94.0547 16.5117C94.2891 15.9779 94.4062 15.4049 94.4062 14.793C94.4062 14.207 94.2891 13.6471 94.0547 13.1133C93.8333 12.5794 93.5273 12.1172 93.1367 11.7266C92.7461 11.3229 92.2969 11.0039 91.7891 10.7695C91.2943 10.5221 90.7669 10.3984 90.207 10.3984H84.7969V19.207H90.207Z" fill="black"/>
</svg>
